<?xml version="1.0" standalone="no"?>
<!DOCTYPE svg PUBLIC "-//W3C//DTD SVG 20010904//EN"
 "http://www.w3.org/TR/2001/REC-SVG-20010904/DTD/svg10.dtd">
<svg version="1.0" xmlns="http://www.w3.org/2000/svg"
 width="513.000000pt" height="513.000000pt" viewBox="0 0 513.000000 513.000000"
 preserveAspectRatio="xMidYMid meet">
<metadata>
Created by potrace 1.14, written by Peter Selinger 2001-2017
</metadata>
<g transform="translate(0.000000,513.000000) scale(0.100000,-0.100000)"
fill="#000000" stroke="none">
<path d="M679 4796 c-5 -3 -3 -836 2 -836 3 0 6 -6 7 -12 4 -46 12 -72 37
-115 46 -77 88 -113 240 -199 40 -22 91 -52 143 -83 29 -17 57 -31 62 -31 6 0
10 -3 10 -8 0 -4 10 -12 23 -17 30 -13 26 -26 -14 -47 -19 -9 -39 -21 -45 -27
-7 -5 -14 -7 -17 -4 -3 3 -12 1 -19 -3 -18 -12 -97 -13 -104 -2 -3 4 -9 6 -14
3 -11 -7 -80 25 -80 37 0 4 -4 8 -10 8 -5 0 -65 32 -132 71 -68 39 -143 83
-168 97 -25 13 -72 40 -105 60 -132 77 -145 83 -146 70 -1 -7 -2 -49 -3 -93
l-1 -80 55 -34 c30 -18 64 -37 75 -42 22 -10 57 -31 65 -39 3 -3 28 -16 55
-30 28 -14 52 -27 55 -31 3 -3 25 -16 50 -30 25 -13 47 -26 50 -29 5 -5 67
-40 125 -69 16 -9 33 -20 36 -24 3 -5 8 -8 10 -7 2 1 24 -1 49 -5 25 -3 53 -7
64 -9 61 -9 159 23 266 88 110 65 90 66 228 -13 68 -39 127 -71 132 -71 6 0
10 -3 10 -7 0 -5 27 -21 60 -38 33 -16 60 -33 60 -37 0 -4 9 -8 20 -8 11 0 20
-4 20 -8 0 -4 26 -21 58 -37 31 -17 59 -33 62 -36 3 -3 20 -12 38 -20 17 -8
32 -17 32 -21 0 -5 4 -8 9 -8 9 0 113 -60 171 -99 34 -23 67 -74 75 -116 2
-11 4 -21 5 -22 6 -7 5 -31 -1 -55 -4 -16 -5 -28 -1 -28 4 0 7 -16 7 -35 0
-19 -3 -35 -6 -35 -4 0 -4 -12 0 -27 8 -31 6 -104 -3 -128 -3 -8 -2 -15 2 -15
4 0 7 -16 7 -35 0 -19 -3 -35 -6 -35 -4 0 -4 -12 -1 -27 6 -25 8 -79 2 -93 -1
-3 -3 -30 -5 -60 -2 -30 -7 -73 -10 -95 -3 -22 -7 -50 -8 -62 0 -13 -5 -23
-10 -23 -4 0 -5 -4 -2 -10 3 -5 3 -16 -2 -22 -4 -7 -8 -17 -9 -23 -5 -27 -33
-128 -38 -132 -3 -3 -12 2 -21 11 -9 9 -14 16 -10 16 3 0 -7 19 -23 43 -30 44
-89 161 -94 187 -2 8 -6 17 -10 20 -4 3 -8 22 -10 43 -1 20 -5 37 -8 37 -3 0
-6 11 -6 25 0 14 2 25 3 25 10 0 70 -34 87 -49 10 -9 21 -16 25 -15 3 1 16 -6
29 -14 12 -8 25 -12 28 -9 3 3 6 43 6 88 0 72 -3 86 -22 106 -12 13 -26 20
-31 17 -5 -3 -9 -1 -9 4 0 6 -12 15 -27 21 -42 18 -83 41 -85 49 0 4 -2 64 -3
134 -1 114 -16 202 -35 218 -3 3 -12 19 -18 35 -13 31 -97 127 -105 119 -2 -2
-10 2 -17 11 -7 8 -19 15 -26 15 -8 0 -14 5 -14 10 0 6 -6 10 -14 10 -8 0 -22
7 -30 16 -9 8 -16 13 -16 9 0 -3 -13 3 -29 14 -16 12 -34 21 -40 21 -6 0 -11
5 -11 10 0 6 -4 10 -9 10 -5 0 -48 23 -96 50 -48 28 -91 50 -96 50 -5 0 -9 5
-9 10 0 6 -6 10 -14 10 -7 0 -19 7 -26 15 -7 8 -16 13 -20 10 -5 -3 -11 -1
-14 4 -9 14 -63 5 -84 -15 -12 -11 -22 -31 -24 -46 -2 -15 -7 -30 -11 -34 -3
-4 -3 -14 1 -23 10 -20 9 -92 -1 -108 -4 -6 -3 -14 1 -17 9 -6 9 -73 -1 -82
-9 -9 33 -154 45 -154 4 0 7 -3 7 -7 -4 -22 6 -37 59 -90 62 -61 88 -84 97
-83 3 1 48 -24 100 -55 52 -30 99 -55 104 -55 6 0 11 -4 11 -10 0 -5 7 -10 15
-10 8 0 15 -5 15 -12 0 -6 3 -9 6 -6 3 4 20 -3 39 -15 18 -12 46 -29 63 -38
28 -16 30 -20 31 -85 1 -38 4 -82 7 -99 4 -16 6 -38 6 -47 0 -10 4 -20 9 -23
5 -4 7 -10 4 -15 -3 -4 2 -20 10 -36 7 -15 12 -31 9 -36 -3 -4 -1 -8 4 -8 5 0
-2 -39 -15 -87 -13 -49 -27 -99 -29 -113 -3 -14 -7 -32 -9 -40 -2 -8 -4 -16
-5 -17 -3 -3 -3 -3 -14 -53 -5 -19 -14 -38 -20 -42 -8 -6 -7 -8 2 -8 9 0 9 -7
-3 -30 -9 -17 -14 -30 -11 -30 2 0 -4 -27 -14 -60 -10 -33 -16 -60 -14 -60 2
0 -1 -12 -6 -26 -8 -20 -73 -258 -85 -309 -8 -38 -18 -72 -22 -85 -4 -8 -7
-19 -8 -25 -1 -5 -3 -12 -4 -15 -1 -3 -5 -16 -8 -30 -6 -30 -11 -53 -13 -60
-13 -37 20 -190 41 -190 5 0 9 -6 9 -14 0 -17 70 -86 87 -86 7 0 13 -4 13 -8
0 -5 17 -17 38 -29 71 -39 117 -65 145 -85 15 -11 27 -17 27 -14 0 5 61 -33
85 -52 6 -4 25 -15 43 -22 17 -8 32 -18 32 -22 0 -5 9 -8 19 -8 11 0 21 -4 23
-8 4 -11 175 -112 188 -112 6 0 10 -4 10 -10 0 -5 4 -10 9 -10 4 0 41 -19 80
-42 75 -43 119 -51 150 -26 9 8 28 19 44 26 15 6 27 16 27 22 0 5 3 9 8 8 11
-4 72 26 72 34 0 5 5 8 10 8 6 0 29 12 51 26 23 14 62 37 87 51 79 44 85 48
104 63 10 8 20 13 21 10 1 -2 23 10 49 28 26 18 51 32 56 32 5 0 15 7 22 15 7
8 16 12 21 9 5 -3 12 2 15 10 3 9 10 14 14 11 4 -3 13 2 20 10 7 8 18 15 25
15 7 0 18 7 25 15 7 8 16 13 20 10 5 -3 10 -1 12 4 1 5 9 11 17 13 33 7 141
116 141 140 0 10 4 18 9 18 23 0 33 189 11 215 -5 6 -7 15 -3 18 3 4 1 12 -4
19 -6 7 -9 21 -8 31 2 9 0 17 -4 17 -7 0 -47 156 -44 178 0 6 -2 12 -6 12 -4
0 -8 6 -8 13 -1 6 -17 73 -38 147 -20 74 -37 142 -39 150 -1 8 -5 22 -8 30 -4
8 -9 26 -12 40 -3 14 -12 54 -21 90 -10 36 -18 70 -19 75 -1 6 -4 15 -8 20 -3
6 -8 24 -9 40 -2 17 -8 33 -12 36 -4 3 -9 22 -10 42 -1 21 -5 37 -9 37 -10 0
-10 34 -1 44 4 3 8 14 9 24 3 22 9 43 18 63 4 8 8 35 11 60 2 24 4 44 5 44 1
0 3 30 4 68 2 57 6 70 24 83 12 8 22 12 22 7 0 -4 4 -3 8 3 4 7 30 25 59 40
188 105 326 190 362 224 41 39 101 148 101 183 0 9 3 17 8 17 8 0 6 289 -3
337 -4 22 -15 37 -33 46 -29 15 -80 15 -90 1 -4 -5 -14 -10 -22 -12 -8 -2 -16
-8 -18 -13 -2 -5 -8 -9 -12 -9 -5 0 -33 -14 -62 -31 -49 -29 -113 -66 -163
-93 -11 -6 -27 -16 -35 -22 -8 -6 -35 -22 -60 -36 -25 -13 -58 -32 -75 -42
-31 -20 -118 -106 -106 -106 3 0 2 -4 -4 -8 -12 -8 -48 -72 -41 -72 2 0 -4
-22 -14 -50 -11 -30 -14 -52 -9 -56 6 -4 6 -11 -1 -19 -8 -10 -8 -15 0 -20 7
-5 8 -11 1 -19 -6 -6 -6 -18 -2 -25 5 -8 5 -26 1 -42 -5 -15 -6 -30 -3 -33 3
-2 6 -19 7 -36 2 -26 -3 -34 -23 -43 -14 -7 -28 -14 -31 -17 -4 -4 -38 -23
-95 -54 -11 -6 -22 -12 -25 -14 -5 -4 -10 -192 -4 -192 12 0 54 25 54 32 0 5
4 7 9 4 5 -3 14 1 21 9 7 8 16 12 21 9 5 -3 9 -1 9 4 0 5 8 12 18 16 9 3 23 9
30 12 10 5 12 -3 7 -37 -8 -51 -10 -58 -18 -81 -11 -28 -15 -43 -13 -49 0 -3
-5 -13 -13 -22 -7 -10 -10 -17 -5 -17 5 0 4 -4 -1 -8 -6 -4 -22 -28 -35 -54
-14 -27 -29 -48 -33 -48 -5 0 -5 -4 -2 -10 3 -5 1 -10 -5 -10 -6 0 -8 -5 -5
-10 3 -6 3 -10 -2 -10 -4 0 -14 -14 -22 -31 -7 -17 -17 -27 -21 -22 -8 8 -41
126 -43 151 0 6 -3 12 -6 12 -3 0 -7 10 -8 23 -1 12 -4 33 -6 47 -15 79 -20
140 -21 270 -1 84 -5 148 -11 152 -7 5 -7 8 0 8 6 0 10 47 10 120 0 66 -4 120
-8 120 -5 0 -5 6 0 12 4 7 8 25 9 39 3 38 38 101 69 124 31 23 102 65 163 97
23 12 42 25 42 30 0 4 6 8 13 8 7 0 29 11 50 25 20 14 37 23 37 20 0 -4 7 1
16 9 8 9 20 14 25 11 5 -4 9 -2 9 3 0 6 17 19 38 29 20 11 53 29 72 41 19 11
39 21 44 21 5 -1 13 6 18 15 5 9 13 14 19 11 5 -4 9 -1 9 6 0 7 3 10 6 6 4 -3
26 7 50 23 23 17 45 30 48 30 3 0 27 13 55 29 27 16 52 27 55 24 3 -4 6 -2 6
4 0 19 32 24 61 11 16 -7 29 -16 29 -20 0 -5 5 -8 10 -8 6 0 34 -15 63 -33 29
-19 54 -34 57 -35 3 0 19 -6 35 -13 32 -13 42 -15 123 -22 29 -3 52 -1 52 5 0
5 4 7 8 4 10 -6 94 12 102 22 6 8 71 39 84 40 5 0 12 5 15 10 7 10 275 172
286 172 3 0 13 7 22 15 8 8 19 13 24 10 5 -4 9 -3 9 2 0 4 25 21 56 37 l55 29
-2 94 c-2 61 -7 92 -13 88 -6 -3 -19 -8 -28 -11 -10 -4 -18 -10 -18 -15 0 -5
-7 -9 -15 -9 -8 0 -15 -4 -15 -10 0 -5 -7 -7 -15 -4 -8 4 -15 1 -15 -5 0 -7
-12 -17 -27 -24 -16 -7 -62 -32 -103 -56 -137 -79 -165 -95 -169 -92 -2 1 -7
-1 -10 -6 -3 -5 -53 -36 -110 -68 -92 -52 -112 -59 -160 -60 -52 -1 -145 31
-161 55 -3 4 -11 9 -19 11 -18 6 3 20 174 113 11 6 22 13 25 16 3 3 14 10 25
16 152 83 187 106 229 156 33 38 60 85 56 97 -1 2 3 7 10 11 13 8 22 56 23
118 1 23 5 42 10 42 4 0 5 5 1 11 -10 17 -12 109 -2 109 5 0 5 8 1 18 -10 19
-9 141 0 166 4 9 3 16 -1 16 -9 0 -6 105 4 121 4 7 3 9 -2 6 -6 -3 -9 17 -6
51 4 65 4 64 -1 117 -2 22 1 46 6 53 6 7 6 12 0 12 -6 0 -9 14 -7 31 5 45 -4
52 -39 30 -18 -10 -50 -29 -72 -41 -22 -12 -42 -24 -45 -27 -3 -3 -6 -168 -6
-368 -1 -278 -4 -372 -15 -397 -14 -36 -68 -108 -80 -108 -11 0 -133 -73 -141
-85 -4 -5 -8 -7 -8 -2 0 4 -12 0 -26 -10 -44 -28 -88 -53 -116 -66 -16 -6 -28
-15 -28 -19 0 -4 -4 -8 -8 -8 -8 0 -281 -153 -322 -180 -8 -6 -24 -14 -35 -19
-11 -6 -65 -37 -120 -69 -55 -33 -102 -58 -104 -56 -3 2 -5 56 -5 119 l-1 114
65 39 c36 22 76 42 88 46 12 4 22 11 22 15 0 4 16 13 35 21 19 8 35 17 35 22
0 4 4 8 9 8 22 0 188 107 226 145 45 46 89 130 101 191 12 64 8 404 -5 417 -8
8 -11 8 -11 0 0 -6 -24 -23 -52 -37 -96 -49 -91 -36 -93 -208 -1 -84 -7 -164
-12 -178 -13 -29 -73 -107 -73 -94 0 5 -4 4 -8 -2 -9 -12 -239 -144 -252 -144
-6 0 -10 -4 -10 -8 0 -8 -43 -32 -58 -32 -4 0 -7 81 -6 180 0 100 -3 183 -8
186 -4 3 -8 0 -8 -7 0 -7 -3 -10 -6 -6 -4 3 -23 -5 -43 -18 -19 -14 -41 -25
-48 -25 -7 0 -13 -4 -13 -9 0 -5 -10 -11 -21 -14 -15 -4 -20 -11 -15 -22 3 -9
1 -25 -4 -36 -8 -13 -7 -19 0 -19 6 0 8 -5 5 -11 -10 -15 -12 -79 -3 -79 3 0
3 -13 -2 -30 -5 -16 -5 -30 -2 -30 9 0 7 -64 -3 -79 -3 -6 -1 -11 5 -11 8 0 8
-6 0 -20 -7 -14 -8 -26 0 -39 7 -14 7 -22 0 -26 -8 -5 -8 -11 0 -20 8 -9 8
-15 0 -20 -6 -3 -7 -11 -3 -18 8 -14 9 -58 0 -80 -3 -9 -2 -17 4 -17 6 0 7 -5
4 -11 -10 -15 -12 -79 -3 -79 3 0 3 -13 -2 -30 -5 -16 -6 -30 -2 -30 4 0 7
-18 7 -40 0 -22 -3 -40 -7 -40 -4 0 -5 -6 -3 -12 7 -20 -5 -32 -65 -64 -30
-16 -57 -31 -60 -34 -3 -3 -40 -26 -84 -50 -77 -44 -166 -128 -166 -156 0 -8
-4 -14 -10 -14 -5 0 -10 -7 -10 -15 0 -17 4 -16 -169 -17 -119 -1 -124 0 -142
23 -10 13 -19 29 -19 35 0 15 -96 111 -128 127 -73 38 -117 62 -122 67 -9 9
-45 30 -76 44 -17 8 -35 20 -40 27 -5 8 -10 187 -10 399 -1 212 -3 394 -3 405
-1 14 -22 30 -71 55 -39 19 -70 37 -70 41 0 3 -6 6 -12 6 -10 0 -13 -43 -12
-184 1 -102 -2 -183 -7 -183 -9 0 -50 21 -59 30 -5 5 -19 13 -99 58 -25 14
-63 36 -83 49 -21 13 -38 21 -38 18 0 -3 -6 -1 -12 4 -64 51 -87 74 -82 82 3
5 2 9 -3 9 -23 0 -35 66 -34 197 0 76 -2 146 -5 156 -3 9 -24 27 -47 39 -23
11 -44 23 -47 27 -8 9 -49 31 -59 31 -14 0 -8 -421 7 -447 7 -13 10 -23 7 -23
-3 0 0 -10 7 -22 7 -13 11 -26 10 -30 -1 -5 3 -8 9 -8 5 0 8 -4 5 -8 -3 -5 4
-15 15 -22 10 -8 19 -18 19 -22 0 -13 34 -48 46 -48 7 0 14 -7 18 -15 3 -8 12
-15 21 -15 8 0 15 -3 15 -8 0 -4 13 -13 30 -20 16 -7 45 -24 65 -37 19 -14 35
-22 35 -19 0 3 12 -4 26 -15 15 -12 33 -21 40 -21 8 0 14 -4 14 -10 0 -5 7
-10 15 -10 8 0 15 -5 15 -11 0 -5 4 -7 10 -4 5 3 10 1 10 -4 0 -6 4 -11 9 -11
6 0 37 -16 69 -35 l60 -35 0 -109 c0 -59 -4 -115 -9 -122 -7 -11 -9 -11 -9 -1
0 7 -4 10 -10 7 -5 -3 -10 -1 -10 5 0 6 -4 8 -10 5 -5 -3 -10 -2 -10 3 0 5
-13 15 -30 22 -16 7 -30 17 -30 22 0 5 -4 7 -9 3 -5 -3 -16 2 -24 10 -9 8 -20
15 -25 15 -5 0 -22 10 -38 23 -16 12 -29 20 -29 19 0 -2 -12 2 -27 9 -15 6
-25 16 -22 21 3 5 2 8 -3 7 -10 -3 -67 24 -118 56 -22 13 -48 29 -57 35 -10 6
-18 7 -18 3 0 -4 -4 -3 -8 3 -9 12 -109 74 -121 74 -5 0 -14 7 -21 15 -7 8
-16 12 -21 10 -4 -3 -12 3 -18 12 -6 10 -11 15 -11 11 0 -4 -16 4 -36 17 -20
14 -43 25 -50 25 -8 0 -14 4 -14 9 0 5 -8 11 -17 14 -31 10 -107 58 -136 85
-33 32 -60 84 -62 121 -1 15 -5 32 -9 39 -4 7 -3 12 3 12 6 0 6 11 1 29 -4 16
-5 32 -2 35 8 9 8 86 0 86 -4 0 -4 10 0 23 10 26 9 38 -1 55 -5 6 -5 12 0 12
4 0 8 95 7 212 -1 195 -3 212 -20 224 -10 7 -25 18 -31 24 -7 6 -13 8 -13 5 0
-4 -13 3 -29 14 -16 12 -34 21 -41 21 -6 0 -9 4 -6 8 4 7 -18 13 -25 8z m795
-1810 c23 -13 72 -42 109 -64 37 -22 76 -43 87 -47 11 -3 20 -11 20 -17 0 -6
3 -8 6 -5 6 6 44 -17 87 -53 38 -31 60 -92 63 -172 2 -43 1 -78 -2 -78 -14 0
-104 54 -104 63 0 6 -3 8 -6 4 -3 -3 -24 5 -45 19 -21 13 -43 24 -49 24 -5 0
-10 5 -10 11 0 5 -4 7 -10 4 -5 -3 -10 -2 -10 3 0 5 -19 17 -41 28 -49 22
-105 73 -121 112 -10 24 -28 192 -20 192 2 0 22 -11 46 -24z m2233 -43 c1 -44
-5 -77 -14 -92 -9 -14 -10 -20 -3 -16 16 10 -6 -31 -31 -59 -11 -11 -19 -23
-19 -28 0 -4 -4 -8 -9 -8 -8 0 -114 -60 -136 -77 -5 -4 -23 -15 -40 -23 -16
-8 -32 -17 -35 -20 -3 -3 -27 -17 -55 -30 -27 -14 -51 -28 -53 -32 -2 -5 -9
-8 -15 -8 -16 0 -14 124 2 163 6 16 11 32 11 35 0 17 60 70 118 105 35 20 66
37 68 37 3 0 30 16 60 35 30 19 58 35 63 35 5 0 16 6 23 13 7 7 24 18 38 24
14 6 25 12 26 12 1 1 1 -29 1 -66z m-1190 -217 c3 -2 15 -1 27 4 13 4 29 4 36
0 8 -5 19 -5 26 1 8 7 14 6 19 -1 5 -8 10 -8 20 0 9 8 17 7 27 -3 11 -12 14
-63 13 -261 0 -135 2 -246 5 -246 3 0 6 -19 6 -43 1 -23 4 -59 7 -79 3 -21 2
-40 -3 -43 -6 -4 -10 -2 -10 4 0 5 -9 8 -20 6 -11 -2 -20 0 -20 4 0 11 -159
10 -166 -1 -3 -4 -10 -6 -15 -2 -5 3 -16 1 -24 -6 -10 -8 -15 -8 -20 1 -4 6
-4 14 1 18 12 9 15 58 18 367 1 149 6 275 9 281 6 10 54 10 64 -1z m111 -823
c15 -3 30 -6 35 -5 4 1 7 -2 7 -8 0 -5 5 -10 11 -10 13 0 75 -50 62 -50 -4 0
0 -5 10 -11 9 -5 17 -14 17 -19 0 -5 5 -21 12 -37 6 -15 12 -32 13 -38 1 -5 3
-12 4 -15 2 -3 4 -12 6 -20 1 -8 7 -33 13 -55 5 -22 13 -51 16 -65 l5 -25
-109 0 c-81 0 -110 3 -110 13 0 6 5 12 11 12 5 0 8 4 4 9 -3 5 -1 12 4 16 6 3
20 26 32 50 12 25 26 45 31 45 4 0 8 9 8 20 0 11 5 20 10 20 6 0 10 6 10 14 0
11 -31 13 -162 12 -90 0 -162 -3 -161 -6 7 -24 30 -66 38 -72 6 -5 6 -8 0 -8
-6 0 -5 -3 1 -8 12 -8 64 -98 64 -110 0 -6 -209 -9 -217 -3 0 0 6 22 14 49 8
26 16 56 17 67 18 125 95 224 188 240 18 3 34 8 37 10 4 5 24 1 79 -12z m-589
-136 c6 -8 8 -17 4 -20 -3 -4 -1 -7 5 -7 7 0 12 -9 12 -19 0 -11 4 -21 8 -23
4 -1 20 -24 35 -51 29 -49 29 -59 7 -142 -6 -22 -13 -47 -15 -55 -2 -8 -4 -16
-5 -17 -4 -5 -7 -16 -15 -60 -4 -24 -12 -43 -17 -43 -5 0 -7 -4 -4 -9 3 -5 0
-26 -7 -47 -18 -51 -15 -204 5 -270 18 -58 54 -131 74 -152 8 -7 12 -17 9 -22
-3 -4 2 -13 10 -20 8 -7 12 -16 9 -21 -3 -5 0 -9 5 -9 6 0 11 -7 11 -15 0 -8
5 -15 10 -15 6 0 10 -5 10 -11 0 -6 9 -24 21 -40 11 -16 17 -29 13 -29 -4 0 0
-8 8 -17 9 -10 26 -38 38 -63 13 -25 26 -47 30 -50 3 -3 9 -13 13 -23 6 -15
-4 -12 -51 14 -31 18 -59 35 -62 39 -3 3 -20 12 -37 19 -18 8 -33 18 -33 24 0
6 -3 8 -6 4 -3 -3 -11 -1 -18 4 -6 5 -71 45 -145 88 -150 86 -180 117 -175
179 4 47 13 91 23 111 5 9 7 24 6 34 -2 9 2 17 8 17 5 0 8 3 4 6 -3 3 0 25 8
49 7 24 10 46 7 49 -3 4 0 6 7 6 7 0 11 6 8 14 -3 8 -3 17 1 20 3 4 8 19 10
34 2 14 7 31 11 37 4 5 7 19 7 30 -1 11 2 22 6 25 4 3 10 24 14 45 3 22 10 48
15 58 5 9 8 17 5 17 -2 0 3 21 11 48 14 46 19 64 27 100 4 18 27 100 33 117 2
6 6 25 9 43 7 35 15 40 33 19z m1092 -29 c7 -24 14 -52 16 -63 8 -35 11 -50
13 -50 2 0 9 -30 14 -55 2 -8 6 -22 9 -30 4 -8 8 -27 11 -42 3 -15 7 -31 10
-36 3 -5 7 -21 10 -36 3 -15 13 -53 22 -84 10 -31 17 -60 16 -64 -1 -4 5 -25
13 -47 8 -23 12 -41 9 -41 -3 0 -2 -6 3 -12 4 -7 8 -17 9 -23 9 -43 23 -100
30 -123 2 -7 3 -13 4 -15 0 -1 7 -27 16 -57 17 -59 14 -119 -7 -145 -31 -37
-53 -54 -61 -49 -4 3 -8 0 -8 -5 0 -6 -7 -11 -15 -11 -8 0 -15 -5 -15 -11 0
-5 -5 -7 -10 -4 -6 3 -13 -1 -16 -9 -3 -9 -10 -14 -14 -11 -4 3 -18 -3 -31
-13 -13 -10 -55 -36 -94 -57 -38 -21 -78 -45 -87 -53 -10 -8 -18 -11 -18 -6 0
5 -4 4 -8 -2 -10 -14 -85 -59 -94 -56 -5 1 -8 -2 -8 -7 0 -5 -6 -11 -14 -14
-19 -7 -14 18 7 43 9 11 15 20 12 20 -2 0 9 23 25 50 17 28 30 53 30 55 0 3
16 29 35 59 19 30 35 59 35 64 0 5 9 21 21 36 11 14 17 26 12 26 -4 0 -3 4 3
8 31 21 76 145 78 220 1 12 4 22 7 22 3 0 4 26 1 58 -2 31 -5 65 -5 75 -1 9
-5 17 -10 17 -4 0 -5 5 -1 11 3 6 2 21 -4 32 -6 12 -14 36 -18 52 -4 17 -8 35
-10 40 -1 6 -13 51 -26 100 -13 50 -23 95 -23 100 1 14 87 159 97 163 4 2 6 8
2 13 -3 5 -1 9 5 9 6 0 16 -19 22 -42z m-541 -356 c0 4 14 3 30 -2 17 -5 30
-5 30 -1 0 4 25 4 55 1 34 -4 56 -2 59 4 2 6 7 3 11 -7 14 -33 -52 -121 -99
-133 -14 -3 -26 -11 -26 -16 0 -6 -6 -8 -14 -5 -8 3 -17 3 -21 -1 -10 -10
-105 -8 -105 2 0 5 -3 7 -6 3 -10 -10 -77 28 -106 61 -55 63 -62 96 -18 90 17
-3 30 -2 30 1 0 3 40 4 90 1 50 -3 90 -2 90 2z m-315 -206 c123 -127 306 -162
461 -89 55 26 130 90 159 136 25 39 36 22 38 -54 2 -90 -14 -169 -35 -169 -5
0 -7 -4 -4 -8 3 -5 -6 -25 -20 -45 -14 -20 -21 -37 -17 -37 4 0 -2 -7 -13 -15
-10 -8 -15 -15 -11 -15 5 0 -1 -14 -13 -30 -12 -16 -18 -30 -13 -30 4 0 3 -4
-3 -8 -6 -4 -21 -27 -35 -52 -13 -25 -26 -47 -29 -50 -3 -3 -14 -23 -25 -45
-11 -22 -24 -44 -28 -50 -13 -17 -47 -78 -58 -107 -6 -16 -15 -28 -20 -28 -5
0 -9 -7 -9 -15 0 -9 -8 -25 -19 -36 -18 -20 -19 -19 -65 62 -25 45 -46 86 -46
90 0 5 -3 9 -7 9 -5 0 -13 10 -19 23 -33 69 -98 183 -108 189 -6 4 -7 8 -3 8
5 0 0 12 -11 28 -10 15 -21 32 -23 37 -2 6 -21 40 -42 77 -21 36 -40 77 -43
90 -2 13 -7 34 -10 48 -3 14 -5 31 -5 38 2 30 2 38 1 57 -1 17 1 30 10 65 0 3
8 -6 18 -19 9 -13 30 -38 47 -55z"/>
</g>
</svg>
